<?xml version="1.0" encoding="UTF-8"?>
<svg xmlns="http://www.w3.org/2000/svg" xmlns:xlink="http://www.w3.org/1999/xlink" width="50pt" height="50pt" viewBox="0 0 50 50" version="1.1">
<g id="surface8625042">
<path style=" stroke:none;fill-rule:nonzero;fill:rgb(38.82353%,100%,86.666667%);fill-opacity:1;" d="M 25 2 C 12.308594 2 2 12.308594 2 25 C 2 37.691406 12.308594 48 25 48 C 37.691406 48 48 37.691406 48 25 C 48 12.308594 37.691406 2 25 2 Z M 25 4 C 36.609375 4 46 13.390625 46 25 C 46 36.609375 36.609375 46 25 46 C 13.390625 46 4 36.609375 4 25 C 4 13.390625 13.390625 4 25 4 Z M 18.019531 16 L 18.019531 27.542969 C 18.019531 31.296875 20.636719 34 25 34 C 29.363281 34 31.980469 31.296875 31.980469 27.542969 L 31.980469 16 L 29.789062 16 L 29.789062 27.394531 C 29.789062 30.050781 28.046875 31.976562 25 31.976562 C 21.953125 31.976562 20.210938 30.050781 20.210938 27.394531 L 20.210938 16 Z M 18.019531 16 "/>
</g>
</svg>
